REM DIRINDEX 1\8,1\2\11,1\3\12,1\3\14,1\5\15,1\5\16,1\6\17,1\6\18,1\4\19,1\4\20,1\4\21,1\4\22,1\7\23,1\7\24,1\7\25,1\2\9\26,1\2\9\27,1\2\10\28,1\2\10\29,1\2\10\30,1\2\10\31,1\2\10\32,1\3\13\33,1\3\13\34,1\3\13\35
REM DIRNAME cjc123,folder01,folder02,folder03,folder04,folder05,folder06,folder07,folder08,folder09,folder10,folder11,folder12,folder13,folder14,folder15,folder16,folder17,folder18,folder19,folder20,folder21,folder22,folder23,folder24,folder25,folder26,folder27,folder28,folder29,folder30,folder31,folder32,folder33,folder34
TITLE ""
FILE "2-56 056_UNIT5_SET4.mp3" MP3
  TRACK 01 AUDIO
    TITLE "11:cjc123_5800"
    INDEX 01 00:00:00
  TRACK 02 AUDIO
    TITLE "0:"
    INDEX 01 00:02:51
  TRACK 03 AUDIO
    TITLE "28:cjc123_5801"
    INDEX 01 00:03:21
  TRACK 04 AUDIO
    TITLE "0:"
    INDEX 01 00:04:42
  TRACK 05 AUDIO
    TITLE "29:cjc123_5802"
    INDEX 01 00:04:56
  TRACK 06 AUDIO
    TITLE "0:"
    INDEX 01 00:05:73
  TRACK 07 AUDIO
    TITLE "30:cjc123_5803"
    INDEX 01 00:06:04
  TRACK 08 AUDIO
    TITLE "0:"
    INDEX 01 00:07:31
  TRACK 09 AUDIO
    TITLE "31:cjc123_5804"
    INDEX 01 00:08:01
  TRACK 10 AUDIO
    TITLE "0:"
    INDEX 01 00:13:33
  TRACK 11 AUDIO
    TITLE "32:cjc123_5805"
    INDEX 01 00:13:63
  TRACK 12 AUDIO
    TITLE "0:"
    INDEX 01 00:19:30
  TRACK 13 AUDIO
    TITLE "28:cjc123_5806"
    INDEX 01 00:20:00
  TRACK 14 AUDIO
    TITLE "0:"
    INDEX 01 00:21:19
  TRACK 15 AUDIO
    TITLE "29:cjc123_5807"
    INDEX 01 00:21:35
  TRACK 16 AUDIO
    TITLE "0:"
    INDEX 01 00:22:34
  TRACK 17 AUDIO
    TITLE "30:cjc123_5808"
    INDEX 01 00:22:40
  TRACK 18 AUDIO
    TITLE "0:"
    INDEX 01 00:23:55
  TRACK 19 AUDIO
    TITLE "31:cjc123_5809"
    INDEX 01 00:24:25
  TRACK 20 AUDIO
    TITLE "0:"
    INDEX 01 00:30:54
  TRACK 21 AUDIO
    TITLE "32:cjc123_5810"
    INDEX 01 00:31:16
  TRACK 22 AUDIO
    TITLE "0:"
    INDEX 01 00:36:58
  TRACK 23 AUDIO
    TITLE "28:cjc123_5811"
    INDEX 01 00:37:30
  TRACK 24 AUDIO
    TITLE "0:"
    INDEX 01 00:38:47
  TRACK 25 AUDIO
    TITLE "29:cjc123_5812"
    INDEX 01 00:38:55
  TRACK 26 AUDIO
    TITLE "0:"
    INDEX 01 00:40:01
  TRACK 27 AUDIO
    TITLE "30:cjc123_5813"
    INDEX 01 00:40:07
  TRACK 28 AUDIO
    TITLE "0:"
    INDEX 01 00:41:28
  TRACK 29 AUDIO
    TITLE "31:cjc123_5814"
    INDEX 01 00:42:02
  TRACK 30 AUDIO
    TITLE "0:"
    INDEX 01 00:46:07
  TRACK 31 AUDIO
    TITLE "32:cjc123_5815"
    INDEX 01 00:46:60
  TRACK 32 AUDIO
    TITLE "0:"
    INDEX 01 00:50:50
  TRACK 33 AUDIO
    TITLE "28:cjc123_5816"
    INDEX 01 00:51:05
  TRACK 34 AUDIO
    TITLE "0:"
    INDEX 01 00:52:10
  TRACK 35 AUDIO
    TITLE "29:cjc123_5817"
    INDEX 01 00:52:32
  TRACK 36 AUDIO
    TITLE "0:"
    INDEX 01 00:53:51
  TRACK 37 AUDIO
    TITLE "30:cjc123_5818"
    INDEX 01 00:53:57
  TRACK 38 AUDIO
    TITLE "0:"
    INDEX 01 00:54:64
  TRACK 39 AUDIO
    TITLE "31:cjc123_5819"
    INDEX 01 00:55:42
  TRACK 40 AUDIO
    TITLE "0:"
    INDEX 01 00:59:39
  TRACK 41 AUDIO
    TITLE "32:cjc123_5820"
    INDEX 01 00:59:73
  TRACK 42 AUDIO
    TITLE "0:"
    INDEX 01 01:04:48
  TRACK 43 AUDIO
    TITLE "28:cjc123_5821"
    INDEX 01 01:05:17
  TRACK 44 AUDIO
    TITLE "0:"
    INDEX 01 01:06:30
  TRACK 45 AUDIO
    TITLE "29:cjc123_5822"
    INDEX 01 01:06:42
  TRACK 46 AUDIO
    TITLE "0:"
    INDEX 01 01:07:63
  TRACK 47 AUDIO
    TITLE "30:cjc123_5823"
    INDEX 01 01:07:68
  TRACK 48 AUDIO
    TITLE "0:"
    INDEX 01 01:09:09
  TRACK 49 AUDIO
    TITLE "31:cjc123_5824"
    INDEX 01 01:09:52
  TRACK 50 AUDIO
    TITLE "0:"
    INDEX 01 01:15:25
  TRACK 51 AUDIO
    TITLE "32:cjc123_5825"
    INDEX 01 01:15:58
  TRACK 52 AUDIO
    TITLE "0:"
    INDEX 01 01:20:40
  TRACK 53 AUDIO
    TITLE "28:cjc123_5826"
    INDEX 01 01:21:08
  TRACK 54 AUDIO
    TITLE "0:"
    INDEX 01 01:22:19
  TRACK 55 AUDIO
    TITLE "29:cjc123_5827"
    INDEX 01 01:22:39
  TRACK 56 AUDIO
    TITLE "0:"
    INDEX 01 01:23:34
  TRACK 57 AUDIO
    TITLE "30:cjc123_5828"
    INDEX 01 01:23:46
  TRACK 58 AUDIO
    TITLE "0:"
    INDEX 01 01:24:51
  TRACK 59 AUDIO
    TITLE "31:cjc123_5829"
    INDEX 01 01:25:33
  TRACK 60 AUDIO
    TITLE "0:"
    INDEX 01 01:30:01
  TRACK 61 AUDIO
    TITLE "32:cjc123_5830"
    INDEX 01 01:30:56
  TRACK 62 AUDIO
    TITLE "0:"
    INDEX 01 01:35:29
  TRACK 63 AUDIO
    TITLE "28:cjc123_5831"
    INDEX 01 01:35:69
  TRACK 64 AUDIO
    TITLE "0:"
    INDEX 01 01:36:70
  TRACK 65 AUDIO
    TITLE "29:cjc123_5832"
    INDEX 01 01:37:22
  TRACK 66 AUDIO
    TITLE "0:"
    INDEX 01 01:38:53
  TRACK 67 AUDIO
    TITLE "30:cjc123_5833"
    INDEX 01 01:38:61
  TRACK 68 AUDIO
    TITLE "0:"
    INDEX 01 01:39:70
  TRACK 69 AUDIO
    TITLE "31:cjc123_5834"
    INDEX 01 01:40:46
  TRACK 70 AUDIO
    TITLE "0:"
    INDEX 01 01:45:67
  TRACK 71 AUDIO
    TITLE "32:cjc123_5835"
    INDEX 01 01:46:33
  TRACK 72 AUDIO
    TITLE "0:"
    INDEX 01 01:51:70
  TRACK 73 AUDIO
    TITLE "28:cjc123_5836"
    INDEX 01 01:52:42
  TRACK 74 AUDIO
    TITLE "0:"
    INDEX 01 01:53:55
  TRACK 75 AUDIO
    TITLE "29:cjc123_5837"
    INDEX 01 01:53:65
  TRACK 76 AUDIO
    TITLE "0:"
    INDEX 01 01:55:22
  TRACK 77 AUDIO
    TITLE "30:cjc123_5838"
    INDEX 01 01:55:30
  TRACK 78 AUDIO
    TITLE "0:"
    INDEX 01 01:56:45
  TRACK 79 AUDIO
    TITLE "31:cjc123_5839"
    INDEX 01 01:57:31
  TRACK 80 AUDIO
    TITLE "0:"
    INDEX 01 02:01:56
  TRACK 81 AUDIO
    TITLE "32:cjc123_5840"
    INDEX 01 02:02:17
  TRACK 82 AUDIO
    TITLE "0:"
    INDEX 01 02:06:18
  TRACK 83 AUDIO
    TITLE "28:cjc123_5841"
    INDEX 01 02:06:59
  TRACK 84 AUDIO
    TITLE "0:"
    INDEX 01 02:07:63
  TRACK 85 AUDIO
    TITLE "29:cjc123_5842"
    INDEX 01 02:08:07
  TRACK 86 AUDIO
    TITLE "0:"
    INDEX 01 02:09:28
  TRACK 87 AUDIO
    TITLE "30:cjc123_5843"
    INDEX 01 02:09:36
  TRACK 88 AUDIO
    TITLE "0:"
    INDEX 01 02:10:42
  TRACK 89 AUDIO
    TITLE "31:cjc123_5844"
    INDEX 01 02:11:12
  TRACK 90 AUDIO
    TITLE "0:"
    INDEX 01 02:17:02
  TRACK 91 AUDIO
    TITLE "32:cjc123_5845"
    INDEX 01 02:17:36
  TRACK 92 AUDIO
    TITLE "0:"
    INDEX 01 02:22:60
  TRACK 93 AUDIO
    TITLE "28:cjc123_5846"
    INDEX 01 02:23:32
  TRACK 94 AUDIO
    TITLE "0:"
    INDEX 01 02:24:59
  TRACK 95 AUDIO
    TITLE "29:cjc123_5847"
    INDEX 01 02:25:00
  TRACK 96 AUDIO
    TITLE "0:"
    INDEX 01 02:26:13
  TRACK 97 AUDIO
    TITLE "30:cjc123_5848"
    INDEX 01 02:26:19
  TRACK 98 AUDIO
    TITLE "0:"
    INDEX 01 02:27:34
  TRACK 99 AUDIO
    TITLE "31:cjc123_5849"
    INDEX 01 02:28:08
  TRACK 100 AUDIO
    TITLE "0:"
    INDEX 01 02:32:49
  TRACK 101 AUDIO
    TITLE "32:cjc123_5850"
    INDEX 01 02:33:25
  TRACK 102 AUDIO
    TITLE "0:"
    INDEX 01 02:37:66
  TRACK 103 AUDIO
    TITLE "28:cjc123_5851"
    INDEX 01 02:38:38
  TRACK 104 AUDIO
    TITLE "0:"
    INDEX 01 02:39:57
  TRACK 105 AUDIO
    TITLE "29:cjc123_5852"
    INDEX 01 02:39:65
  TRACK 106 AUDIO
    TITLE "0:"
    INDEX 01 02:41:36
  TRACK 107 AUDIO
    TITLE "30:cjc123_5853"
    INDEX 01 02:41:46
  TRACK 108 AUDIO
    TITLE "0:"
    INDEX 01 02:42:59
  TRACK 109 AUDIO
    TITLE "31:cjc123_5854"
    INDEX 01 02:43:27
  TRACK 110 AUDIO
    TITLE "0:"
    INDEX 01 02:48:30
  TRACK 111 AUDIO
    TITLE "32:cjc123_5855"
    INDEX 01 02:49:02
  TRACK 112 AUDIO
    TITLE "0:"
    INDEX 01 02:54:31
  TRACK 113 AUDIO
    TITLE "28:cjc123_5856"
    INDEX 01 02:54:74
  TRACK 114 AUDIO
    TITLE "0:"
    INDEX 01 02:56:06
  TRACK 115 AUDIO
    TITLE "29:cjc123_5857"
    INDEX 01 02:56:16
  TRACK 116 AUDIO
    TITLE "0:"
    INDEX 01 02:57:69
  TRACK 117 AUDIO
    TITLE "30:cjc123_5858"
    INDEX 01 02:58:05
  TRACK 118 AUDIO
    TITLE "0:"
    INDEX 01 02:59:11
  TRACK 119 AUDIO
    TITLE "31:cjc123_5859"
    INDEX 01 02:59:58
  TRACK 120 AUDIO
    TITLE "0:"
    INDEX 01 03:05:25
  TRACK 121 AUDIO
    TITLE "32:cjc123_5860"
    INDEX 01 03:05:58
  TRACK 122 AUDIO
    TITLE "0:"
    INDEX 01 03:12:21
  TRACK 123 AUDIO
    TITLE "28:cjc123_5861"
    INDEX 01 03:12:72
  TRACK 124 AUDIO
    TITLE "0:"
    INDEX 01 03:14:04
  TRACK 125 AUDIO
    TITLE "29:cjc123_5862"
    INDEX 01 03:14:20
  TRACK 126 AUDIO
    TITLE "0:"
    INDEX 01 03:15:29
  TRACK 127 AUDIO
    TITLE "30:cjc123_5863"
    INDEX 01 03:15:37
  TRACK 128 AUDIO
    TITLE "0:"
    INDEX 01 03:16:42
  TRACK 129 AUDIO
    TITLE "31:cjc123_5864"
    INDEX 01 03:17:18
  TRACK 130 AUDIO
    TITLE "0:"
    INDEX 01 03:22:10
  TRACK 131 AUDIO
    TITLE "32:cjc123_5865"
    INDEX 01 03:22:43
  TRACK 132 AUDIO
    TITLE "0:"
    INDEX 01 03:28:00
  TRACK 133 AUDIO
    TITLE "28:cjc123_5866"
    INDEX 01 03:28:44
  TRACK 134 AUDIO
    TITLE "0:"
    INDEX 01 03:29:55
  TRACK 135 AUDIO
    TITLE "29:cjc123_5867"
    INDEX 01 03:30:03
  TRACK 136 AUDIO
    TITLE "0:"
    INDEX 01 03:31:52
  TRACK 137 AUDIO
    TITLE "30:cjc123_5868"
    INDEX 01 03:31:65
  TRACK 138 AUDIO
    TITLE "0:"
    INDEX 01 03:33:11
  TRACK 139 AUDIO
    TITLE "31:cjc123_5869"
    INDEX 01 03:33:62
  TRACK 140 AUDIO
    TITLE "0:"
    INDEX 01 03:39:12
  TRACK 141 AUDIO
    TITLE "32:cjc123_5870"
    INDEX 01 03:39:59
  TRACK 142 AUDIO
    TITLE "0:"
    INDEX 01 03:44:66
  TRACK 143 AUDIO
    TITLE "28:cjc123_5871"
    INDEX 01 03:45:15
  TRACK 144 AUDIO
    TITLE "0:"
    INDEX 01 03:46:42
  TRACK 145 AUDIO
    TITLE "29:cjc123_5872"
    INDEX 01 03:46:53
  TRACK 146 AUDIO
    TITLE "0:"
    INDEX 01 03:48:07
  TRACK 147 AUDIO
    TITLE "30:cjc123_5873"
    INDEX 01 03:48:33
  TRACK 148 AUDIO
    TITLE "0:"
    INDEX 01 03:49:56
  TRACK 149 AUDIO
    TITLE "31:cjc123_5874"
    INDEX 01 03:50:35
  TRACK 150 AUDIO
    TITLE "0:"
    INDEX 01 03:55:70
  TRACK 151 AUDIO
    TITLE "32:cjc123_5875"
    INDEX 01 03:56:36
  TRACK 152 AUDIO
    TITLE "0:"
    INDEX 01 04:01:72
